<svg viewBox="0 0 800 800" xmlns="http://www.w3.org/2000/svg"><path d="M636.0444944359785,565.3479066958458 L261.4220230444717,114.17464737550824 M539.2538200218964,685.6830183259585 L163.84266215808776,235.1143702408736 M636.0444944359785,565.3479066958458 L646.639289298692,573.0214237906005 M646.639289298692,573.0214237906005 L653.8094941367249,583.7479920854905 M653.8094941367249,583.7479920854905 L657.136517673029,596.9055323835373 M657.136517673029,596.9055323835373 L656.4249940662489,611.7298619136525 M656.4249940662489,611.7298619136525 L651.7145995689484,627.3590280502879 M651.7145995689484,627.3590280502879 L643.2781278948609,642.8834980262735 M643.2781278948609,642.8834980262735 L631.605870639762,657.3993034547397 M631.605870639762,657.3993034547397 L617.3770971803605,670.0609389676638 M617.3770971803605,670.0609389676638 L601.4203962595399,680.1309871362441 M601.4203962595399,680.1309871362441 L584.6651269587088,687.0232936014044 M584.6651269587088,687.0232936014044 L568.0869253907499,690.3372712574901 M568.0869253907499,690.3372712574901 L552.6506259001115,689.881164064526 M552.6506259001115,689.881164064526 L539.2538200218964,685.6830183259585 M261.4220230444717,114.17464737550824 L272.02275367006786,121.821940785116 M272.02275367006786,121.821940785116 L279.1756555281048,132.54134879992546 M279.1756555281048,132.54134879992546 L282.4631114131166,145.71131706105993 M282.4631114131166,145.71131706105993 L281.69206755225787,160.5668774322675 M281.69206755225787,160.5668774322675 L276.9056004898514,176.2442689796245 M276.9056004898514,176.2442689796245 L268.38094672501575,191.83118012656007 M268.38094672501575,191.83118012656007 L256.6135212713566,206.4199821796036 M256.6135212713566,206.4199821796036 L242.28815661676492,219.16091102740563 M242.28815661676492,219.16091102740563 L226.23907540417605,229.3119136114397 M226.23907540417605,229.3119136114397 L209.4009843413777,236.28210713576047 M209.4009843413777,236.28210713576047 L192.75438596632802,239.66639607346974 M192.75438596632802,239.66639607346974 L177.2681427478255,239.2689590834886 M177.2681427478255,239.2689590834886 L163.84266215808776,235.1143702408736 M539.2538200218964,685.6830183259585 L528.6745999515739,677.988681677967 M528.6745999515739,677.988681677967 L521.5264710905266,667.2471023734918 M521.5264710905266,667.2471023734918 L518.2229539644331,654.0838327486186 M518.2229539644331,654.0838327486186 L518.9540397133395,639.2643427583106 M518.9540397133395,639.2643427583106 L523.6755619310509,623.6494844517161 M523.6755619310509,623.6494844517161 L532.1121823726436,608.1455124810299 M532.1121823726436,608.1455124810299 L543.7735801088377,593.6517113780351 M543.7735801088377,593.6517113780351 L557.9829634802171,581.008523410539 M557.9829634802171,581.008523410539 L573.9161931527173,570.9491502998001 M573.9161931527173,570.9491502998001 L590.6492910559548,564.0573009664428 M590.6492910559548,564.0573009664428 L607.2116824607921,560.7334711318891 M607.2116824607921,560.7334711318891 L622.6421695692867,561.1716506814695 M622.6421695692867,561.1716506814695 L636.0444944359785,565.3479066958458 M163.84266215808776,235.1143702408736 L153.2577552841004,227.44601910010172 M153.2577552841004,227.44601910010172 L146.1271906953063,216.7113425883146 M146.1271906953063,216.7113425883146 L142.86348232697105,203.53556312375235 M142.86348232697105,203.53556312375235 L143.65428266034695,188.68479670115832 M143.65428266034695,188.68479670115832 L148.4519297423634,173.0217897280877 M148.4519297423634,173.0217897280877 L156.97666215826436,157.45555472469894 M156.97666215826436,157.45555472469894 L168.73301053932516,142.88898747722476 M168.73301053932516,142.88898747722476 L183.03873973103208,130.16672438586932 M183.03873973103208,130.16672438586932 L199.0641019888658,120.0265726088594 M199.0641019888658,120.0265726088594 L215.87977137076768,113.05694239445677 M215.87977137076768,113.05694239445677 L232.51041983492345,109.6627287425099 M232.51041983492345,109.6627287425099 L247.99089770565905,110.04215432994272 M247.99089770565905,110.04215432994272 L261.4220230444717,114.17464737550824" stroke="black"  stroke-width="4"  fill="red"/></svg>